<svg xmlns="http://www.w3.org/2000/svg" xmlns:xlink="http://www.w3.org/1999/xlink" width="403" height="626" viewBox="0 0 403 626">
  <defs>
    <linearGradient id="20.10_groovy-gorilla_rpi_sketch-a" x1="27.366%" x2="73.221%" y1="14.69%" y2="78.562%">
      <stop offset="0%" stop-color="#43134C"/>
      <stop offset="47.82%" stop-color="#640073"/>
      <stop offset="100%" stop-color="#CB4133"/>
    </linearGradient>
    <path id="20.10_groovy-gorilla_rpi_sketch-b" d="M0.740990991,35.3439189 C0.740990991,35.3439189 -1.93783784,6.86373874 39.584009,1.85855856 C83.6436937,-3.4990991 136.44482,10.1065315 142.789414,27.6599099 C149.204505,45.2132883 135.105405,81.6594595 121.499775,97.5914414 C107.96464,113.523423 83.2207207,118.105631 61.9310811,115.708784 C40.6414414,113.311937 14.6286036,109.011712 6.59211712,80.884009 C-0.80990991,54.7301802 0.740990991,35.3439189 0.740990991,35.3439189 Z"/>
    <linearGradient id="20.10_groovy-gorilla_rpi_sketch-e" x1="31.426%" x2="76.866%" y1="15.935%" y2="79.2%">
      <stop offset="0%" stop-color="#43134C"/>
      <stop offset="47.82%" stop-color="#640073"/>
      <stop offset="100%" stop-color="#CB4133"/>
    </linearGradient>
    <path id="20.10_groovy-gorilla_rpi_sketch-d" d="M143.739865,35.3439189 C143.739865,35.3439189 146.418694,6.86373874 104.896847,1.85855856 C60.8371622,-3.56959459 8.03603604,10.036036 1.69144144,27.5894144 C-4.72364865,45.1427928 9.37545045,81.588964 22.9810811,97.5209459 C36.5162162,113.452928 61.2601351,118.035135 82.5497748,115.638288 C103.839414,113.241441 129.852252,108.941216 137.888739,80.8135135 C145.361261,54.7301802 143.739865,35.3439189 143.739865,35.3439189 Z"/>
  </defs>
  <g fill="none" fill-rule="evenodd">
    <polygon fill="#854BA8" fill-rule="nonzero" points="396.767 227.841 382.668 222.343 344.741 95.662 284.326 15.086 200.578 0 119.085 15.861 59.093 97.777 22.154 219.946 6.504 227.841 .793 244.69 4.459 288.397 18.981 314.41 18.981 438.623 59.446 536.682 94.411 556.632 129.518 595.264 200.578 626 271.637 595.264 306.039 557.408 342.274 536.682 382.668 438.623 382.668 314.41 399.375 286.494 402.477 243.28"/>
    <rect width="119" height="49" x="139" y="373" fill="#BE9FD1"/>
    <g fill-rule="nonzero" transform="translate(.723)">
      <polygon fill="#451B59" points="381.945 273.17 381.945 438.623 342.749 406.9"/>
      <polygon fill="#502963" points="322.517 519.904 298.619 449.127 342.749 406.9 381.945 438.623 341.551 536.682 305.316 557.408 270.914 595.264 288.891 554.165"/>
      <polygon fill="#5A356C" points="199.855 0 283.603 15.086 344.018 95.662 356.143 165.805 288.679 104.897 199.855 87.062"/>
      <polygon fill="#81658E" points="199.855 0 118.362 15.861 111.171 106.942 199.855 87.062"/>
      <polygon fill="#9E88A8" points="118.362 15.861 111.171 106.942 46.175 164.114 58.37 97.777"/>
      <polygon fill="#81658E" points="344.018 95.662 356.143 165.805 381.945 251.528 381.945 222.343"/>
      <polygon fill="#BBACC2" points="58.37 97.777 21.431 219.946 18.258 251.528 46.175 164.114"/>
      <polyline fill="#BBACC2" points="18.258 251.528 18.258 251.528 .07 244.69 5.781 227.841 21.431 219.946"/>
      <polyline fill="#3D1152" points="18.258 251.528 .07 244.69 3.736 288.397 18.258 314.41 18.258 251.528"/>
      <polygon fill="#3D1152" points="401.754 243.28 398.652 286.494 381.945 314.41 381.945 251.528"/>
      <polygon fill="#81658E" points="381.945 222.343 396.044 227.841 401.754 243.28 381.945 251.528"/>
      <polygon fill="#854BA8" points="322.517 519.904 253.149 455.824 199.855 464.495 199.855 519.904 288.115 538.233"/>
      <polyline fill="#3D1152" points="274.439 268.024 273.241 291.851 312.577 304.893 349.023 297.139 318.992 285.225 274.439 268.024"/>
      <polyline fill="#854BA8" points="199.855 287.763 199.855 319.133 229.956 306.232 199.855 287.763"/>
      <polyline fill="#9D6FBA" points="199.855 287.763 172.432 306.373 199.855 319.133 199.855 287.763"/>
      <polygon fill="#9D6FBA" points="88.542 304.259 51.039 296.857 83.326 353.323 100.738 326.253"/>
      <polygon fill="#471D5A" points="88.542 304.259 100.738 326.253 160.871 328.932 172.432 306.373 128.09 291.992"/>
      <polygon fill="#471D5A" points="229.956 306.232 236.583 330.553 299.253 326.888 312.577 304.893 273.241 291.851"/>
      <polygon fill="#C6ABD7" points="349.305 297.139 312.648 304.823 299.253 326.888 315.256 354.733"/>
      <polyline fill="#3D1152" points="171.304 419.589 149.732 427.062 185.262 461.886 188.505 428.754 171.304 419.589"/>
      <polyline fill="#B693CB" points="102.359 450.114 76.699 520.257 145.291 454.837 102.359 450.114"/>
      <polyline fill="#7D3FA2" points="298.619 449.127 253.149 455.824 322.517 519.904 298.619 449.127"/>
      <polygon fill="#9D6FBA" points="199.855 534.426 111.242 546.199 76.699 520.257 110.819 554.165 128.795 595.264 199.855 626"/>
      <polygon fill="#74339D" points="199.855 534.426 288.468 546.199 322.517 519.904 288.891 554.165 270.914 595.264 199.855 626"/>
      <polygon fill="#B693CB" points="199.855 381.522 199.855 412.681 158.615 395.268"/>
      <polygon fill="#BE9FD1" points="172.432 306.373 160.871 328.932 100.738 326.253 83.326 353.323 158.615 395.268 199.855 381.522 199.855 319.133"/>
      <polygon fill="#9563B4" points="299.253 326.888 236.583 330.553 229.956 306.232 199.855 319.133 199.855 381.522 241.095 394.845 315.256 354.733"/>
      <polygon fill="#9D6FBA" points="199.855 381.522 199.855 412.681 241.095 394.845"/>
      <polygon fill="#B693CB" points="158.615 395.268 134.153 423.114 145.291 454.837 185.262 461.886 149.732 427.062 171.304 419.589 188.505 428.754 199.855 412.681"/>
      <polygon fill="#7D3FA2" points="199.855 412.681 199.855 464.495 215.152 462.027 210.852 428.613"/>
      <polygon fill="#9D6FBA" points="199.855 412.681 210.852 428.613 226.22 419.73 249.836 427.837 215.152 462.027 253.149 455.824 265.416 424.383 241.095 394.845"/>
      <polygon fill="#3D1152" points="288.115 538.233 199.855 519.904 111.524 538.092 76.699 520.257 111.242 546.199 199.855 534.426 288.468 546.199 322.517 519.904"/>
      <polygon fill="#854BA8" points="199.855 245.183 265.416 229.815 274.439 268.024 199.855 287.763"/>
      <polygon fill="#9D6FBA" points="199.855 245.183 130.699 232.283 123.931 267.742 199.855 287.763"/>
      <polygon fill="#81658E" points="111.171 106.942 124.425 149.027 130.699 232.283 199.855 245.183 199.855 137.889 199.855 87.062"/>
      <polygon fill="#9E88A8" points="124.425 149.027 71.341 205.847 68.24 236.442 130.699 232.283"/>
      <polygon fill="#BE9FD1" points="68.24 236.442 18.258 274.157 51.039 296.857 80.224 284.802 123.931 267.742 130.699 232.283"/>
      <polygon fill="#A894B1" points="111.171 106.942 46.175 164.114 18.258 251.528 18.258 274.157 68.24 236.442 71.341 205.847 124.425 149.027"/>
      <polygon fill="#644174" points="199.855 137.889 199.855 245.183 265.416 229.815 275.285 149.027"/>
      <polygon fill="#6C2797" points="333.091 234.045 265.416 229.815 274.439 268.024 318.992 285.225 349.305 297.139 381.945 273.17"/>
      <polygon fill="#644174" points="356.143 165.805 288.679 104.897 199.855 87.062 199.855 137.889 275.285 149.027 327.311 204.437 333.091 234.045 381.945 273.17 381.945 251.528"/>
      <polygon fill="#5A356C" points="327.311 204.437 275.285 149.027 265.416 229.815 333.091 234.045"/>
      <polygon fill="#A57BBF" points="158.615 395.268 83.326 353.323 51.039 296.857 18.258 274.227 58.3 407.957 102.289 450.184 145.291 454.978 134.082 423.255"/>
      <polygon fill="#3D1152" points="226.22 419.73 249.836 427.837 215.152 462.027 210.852 428.613"/>
      <polygon fill="#A57BBF" points="199.855 464.495 145.291 454.837 145.291 454.837 76.699 520.257 111.524 538.092 199.855 519.904"/>
      <polygon fill="#9D6FBA" points="199.855 412.681 199.855 464.495 185.262 461.886 188.505 428.754"/>
      <polyline fill="#3D1152" points="199.855 287.763 274.439 268.024 273.241 291.851 229.956 306.232 199.855 287.763"/>
      <polygon fill="#3D1152" points="199.855 287.763 123.931 267.742 128.09 291.992 172.432 306.373"/>
      <polygon fill="#3D1152" points="51.039 296.857 88.542 304.259 128.09 291.992 123.931 267.742 80.224 284.802"/>
      <g transform="translate(17.624 273.523)">
        <polygon fill="#8B7097" points=".634 .634 .634 165.1 40.676 134.364"/>
        <polygon fill="#775986" points="93.195 280.643 59.075 246.734 84.736 176.591 40.676 134.364 .634 165.1 41.099 263.16 76.065 283.11 111.171 321.741"/>
      </g>
      <polygon fill="#6D4D7D" points="199.855 137.889 199.855 87.062 111.171 106.942 124.425 149.027"/>
      <polygon fill="#854BA8" points="349.305 297.139 315.256 354.733 241.095 394.845 265.416 424.383 253.149 455.824 298.619 449.127 342.749 406.9 381.945 273.17"/>
    </g>
    <g transform="translate(7 251.962)">
      <path fill="#FFF" fill-rule="nonzero" d="M1.1954955,30.2317568 L0.490540541,7.74369369 C0.490540541,7.74369369 -0.0734234234,4.14842342 6.83513514,3.86644144 C13.7436937,3.58445946 71.972973,-3.2536036 112.225901,2.73851351 C152.549324,8.73063063 173.909459,17.3310811 194.846622,18.5295045 L194.846622,47.8556306 C194.846622,47.8556306 183.355856,47.8556306 178.844144,62.5186937 C174.332432,77.1817568 163.969595,110.385135 133.092568,124.484234 C102.215541,138.583333 51.3882883,125.823649 37.8531532,114.121396 C24.318018,102.419144 17.1274775,62.8006757 14.9421171,54.5527027 C12.8272523,46.3047297 9.44346847,36.5763514 4.57927928,35.9418919 C0.490540541,35.3074324 1.1954955,30.2317568 1.1954955,30.2317568 Z"/>
      <path fill="url(#20.10_groovy-gorilla_rpi_sketch-a)" fill-rule="nonzero" d="M24.740991,43.3439189 C24.740991,43.3439189 22.0621622,14.8637387 63.584009,9.85855856 C107.643694,4.5009009 160.44482,18.1065315 166.789414,35.6599099 C173.204505,53.2132883 159.105405,89.6594595 145.499775,105.591441 C131.96464,121.523423 107.220721,126.105631 85.9310811,123.708784 C64.6414414,121.311937 38.6286036,117.011712 30.5921171,88.884009 C23.1900901,62.7301802 24.740991,43.3439189 24.740991,43.3439189 Z"/>
      <g transform="translate(24 8)">
        <mask id="20.10_groovy-gorilla_rpi_sketch-c" fill="#fff">
          <use xlink:href="#20.10_groovy-gorilla_rpi_sketch-b"/>
        </mask>
        <use fill="url(#20.10_groovy-gorilla_rpi_sketch-a)" fill-rule="nonzero" xlink:href="#20.10_groovy-gorilla_rpi_sketch-b"/>
        <g fill-rule="nonzero" mask="url(#20.10_groovy-gorilla_rpi_sketch-c)">
          <g transform="translate(-62 -52)">
            <polygon fill="#E04403" points="-7.333 54.59 166.719 54.59 166.719 105.134 -7.333 105.134" transform="rotate(-45 79.693 79.862)"/>
            <polygon fill="#E76936" points="34.981 83.054 209.033 83.054 209.033 133.599 34.981 133.599" transform="rotate(-45 122.007 108.326)"/>
            <polygon fill="#E04403" points="86.345 101.894 260.397 101.894 260.397 152.439 86.345 152.439" transform="rotate(-45 173.371 127.167)"/>
            <polygon fill="#E3571C" points="56.198 123.095 230.249 123.095 230.249 135.996 56.198 135.996" transform="rotate(-45 143.223 129.545)"/>
            <polygon fill="#E04403" points="83.735 150.559 257.787 150.559 257.787 163.459 83.735 163.459" transform="rotate(-45 170.76 157.01)"/>
            <polygon fill="#E04403" points="21.511 88.412 195.562 88.412 195.562 101.312 21.511 101.312" transform="rotate(-45 108.536 94.862)"/>
          </g>
        </g>
      </g>
      <path fill="#FFF" fill-rule="nonzero" d="M105.810811,64.3515766 L105.03536,62.9416667 C105.03536,53.0018018 100.382658,48.9835586 94.9545045,45.8817568 C96.5759009,45.4587838 98.2677928,45.1063063 98.7612613,43.0619369 C101.581081,42.356982 102.215541,41.0175676 102.497523,39.6781532 C103.202477,39.1846847 105.740315,37.8452703 105.458333,35.4484234 C106.868243,34.531982 107.643694,33.2630631 107.220721,31.5711712 C108.701126,29.9497748 109.124099,28.6103604 108.48964,27.4119369 C110.252027,25.2265766 109.476577,24.0986486 108.701126,22.9002252 C110.040541,20.5033784 108.842117,17.895045 105.105856,18.3885135 C103.62545,16.2031532 100.382658,16.6966216 99.8891892,16.6966216 C99.3252252,15.9916667 98.6202703,15.4277027 96.2939189,15.7096847 C94.8135135,14.4407658 93.1921171,14.6522523 91.4297297,15.2867117 C89.3853604,13.7358108 88.0459459,15.0047297 86.5655405,15.4277027 C84.0981982,14.6522523 83.5342342,15.7096847 82.3358108,16.1326577 C79.656982,15.5686937 78.8815315,16.7671171 77.5421171,18.036036 L76.0617117,18.036036 C72.0434685,20.3623874 69.9990991,25.0855856 69.2941441,27.4824324 C68.5891892,25.0855856 66.6153153,20.3623874 62.5265766,18.036036 L61.0461712,18.036036 C59.7772523,16.7671171 58.9313063,15.5686937 56.2524775,16.1326577 C55.0540541,15.7096847 54.4900901,14.6522523 52.0227477,15.4277027 C51.0358108,15.1457207 50.1193694,14.4407658 48.9914414,14.5112613 L48.9914414,14.5112613 C48.4274775,14.5112613 47.793018,14.7227477 47.0880631,15.2867117 C45.3961712,14.6522523 43.7042793,14.4407658 42.2238739,15.7096847 C39.968018,15.4277027 39.1925676,15.9916667 38.6286036,16.6966216 C38.1351351,16.6966216 34.8923423,16.2031532 33.4119369,18.3885135 C29.6756757,17.9655405 28.4772523,20.5033784 29.8166667,22.9002252 C29.0412162,24.0281532 28.2657658,25.1560811 30.0281532,27.4119369 C29.3936937,28.6103604 29.8166667,29.9497748 31.2970721,31.5711712 C30.8740991,33.2630631 31.6495495,34.531982 33.0594595,35.4484234 C32.7774775,37.7747748 35.2448198,39.1846847 36.0202703,39.6781532 C36.3022523,41.0175676 36.8662162,42.356982 39.7565315,43.0619369 C40.25,45.1063063 41.9418919,45.4587838 43.5632883,45.8817568 C38.1351351,48.9835586 33.4824324,53.0018018 33.4824324,62.9416667 L32.706982,64.3515766 C26.5033784,68.0173423 20.8637387,79.9310811 29.6051802,89.588964 C30.1691441,92.6202703 31.1560811,94.8056306 32.002027,97.2024775 C33.2709459,106.86036 41.6599099,111.372072 43.8452703,111.936036 C47.0880631,114.332883 50.5423423,116.588739 55.195045,118.210135 C59.5657658,122.580856 64.3594595,124.272748 69.0826577,124.272748 C69.1531532,124.272748 69.2236486,124.272748 69.2941441,124.272748 C74.0878378,124.272748 78.811036,122.580856 83.1817568,118.210135 C87.8344595,116.588739 91.2887387,114.332883 94.5315315,111.936036 C96.7168919,111.372072 105.105856,106.86036 106.374775,97.2024775 C107.220721,94.8056306 108.207658,92.6202703 108.771622,89.588964 C117.654054,79.9310811 112.014414,68.0878378 105.810811,64.3515766 Z M100.382658,61.6727477 C100.100676,65.409009 80.0094595,48.7015766 83.4637387,48.1376126 C92.8396396,46.5867117 100.66464,51.9443694 100.382658,61.6727477 Z M76.9781532,20.3623874 C77.1896396,21.2788288 77.4011261,21.8427928 77.6126126,21.9837838 C78.811036,20.7148649 79.797973,19.4459459 81.3488739,18.2475225 C81.3488739,18.9524775 80.9963964,19.7279279 81.9128378,20.2918919 C82.7587838,19.2344595 83.8867117,18.2475225 85.3671171,17.4015766 C84.6621622,18.6 85.2261261,18.9524775 85.6490991,19.4459459 C86.777027,18.5295045 87.904955,17.5425676 89.9493243,16.7671171 C89.3853604,17.4720721 88.5394144,18.1065315 89.4558559,18.881982 C90.6542793,18.177027 91.7822072,17.4720721 94.602027,16.9786036 C93.9675676,17.6835586 92.6986486,18.318018 93.4740991,19.022973 C94.9545045,18.459009 96.5759009,18.1065315 98.4087838,17.8245495 C97.5628378,18.5295045 96.8578829,19.163964 97.5628378,19.7279279 C99.1137387,19.2344595 101.299099,18.6 103.413964,19.163964 L102.07455,20.5033784 C101.933559,20.6443694 105.246847,20.6443694 107.361712,20.6443694 C106.586261,21.7018018 105.740315,22.7592342 105.317342,24.5921171 C105.528829,24.8036036 106.586261,24.6626126 107.643694,24.5921171 C106.586261,26.706982 104.823874,27.2709459 104.400901,28.1873874 C105.03536,28.6808559 105.951802,28.5398649 106.868243,28.1873874 C106.092793,29.6677928 104.541892,30.7252252 103.272973,31.9236486 C103.554955,32.1351351 104.118919,32.2761261 105.458333,32.1351351 C104.330405,33.3335586 102.920495,34.390991 101.299099,35.3779279 C101.581081,35.7304054 102.568018,35.6599099 103.554955,35.7304054 C102.07455,37.1403153 100.171171,37.9157658 98.3382883,38.8322072 C99.2547297,39.3961712 99.8891892,39.2551802 100.594144,39.2551802 C99.3252252,40.2421171 97.1398649,40.8060811 95.165991,41.4405405 C95.5184685,42.0045045 95.9414414,42.1454955 96.7168919,42.356982 C94.602027,43.4849099 91.5707207,42.9914414 90.7247748,43.5554054 C90.9362613,44.1193694 91.5002252,44.4718468 92.2051802,44.8243243 C88.8213964,45.0358108 79.4454955,44.6833333 77.6831081,37.8452703 C81.2078829,34.109009 87.5524775,29.7382883 98.5497748,24.3101351 C90.0198198,27.0594595 82.2653153,30.7957207 75.8502252,35.8713964 C68.0252252,32.4876126 73.2418919,23.8166667 76.9781532,20.3623874 Z M69.2941441,44.8948198 L69.2941441,44.8948198 C74.3698198,44.8243243 80.7144144,48.8425676 80.7144144,52.6493243 C80.7144144,55.9626126 76.2731982,58.7119369 69.3646396,58.6414414 C62.5970721,58.5709459 58.0148649,55.2576577 58.0148649,52.0148649 C58.0148649,49.336036 63.5135135,44.7538288 69.2941441,44.8948198 Z M42.1533784,42.356982 C42.9993243,42.215991 43.3518018,42.0045045 43.7042793,41.4405405 C41.7304054,40.8060811 39.545045,40.3126126 38.2761261,39.2551802 C38.9810811,39.2551802 39.6155405,39.3961712 40.531982,38.8322072 C38.7695946,37.9157658 36.7957207,37.1403153 35.3153153,35.7304054 C36.2317568,35.7304054 37.2186937,35.7304054 37.5711712,35.3779279 C35.9497748,34.390991 34.5398649,33.3335586 33.4119369,32.1351351 C34.6808559,32.2761261 35.2448198,32.1351351 35.5972973,31.9236486 C34.3283784,30.7252252 32.7774775,29.6677928 32.002027,28.1873874 C32.988964,28.5398649 33.8349099,28.6103604 34.4693694,28.1873874 C34.0463964,27.2709459 32.2135135,26.706982 31.2265766,24.5921171 C32.2135135,24.6626126 33.3414414,24.8036036 33.5529279,24.5921171 C33.0594595,22.7592342 32.284009,21.7018018 31.5085586,20.6443694 C33.6939189,20.6443694 37.0072072,20.6443694 36.7957207,20.5033784 L35.4563063,19.163964 C37.5711712,18.6 39.7565315,19.2344595 41.3074324,19.7279279 C42.0123874,19.163964 41.3074324,18.5295045 40.4614865,17.8245495 C42.2943694,18.036036 43.9157658,18.459009 45.3961712,19.022973 C46.1716216,18.318018 44.9027027,17.6835586 44.2682432,16.9786036 C47.0880631,17.4720721 48.215991,18.177027 49.4144144,18.881982 C50.2603604,18.1065315 49.4849099,17.4015766 48.9209459,16.7671171 C51.0358108,17.5425676 52.0932432,18.459009 53.2211712,19.4459459 C53.5736486,18.9524775 54.2081081,18.6 53.5031532,17.4015766 C54.9835586,18.2475225 56.1114865,19.163964 56.9574324,20.2918919 C57.8738739,19.7279279 57.5213964,18.9524775 57.5213964,18.2475225 C59.0722973,19.4459459 60.0592342,20.7148649 61.2576577,21.9837838 C61.4691441,21.8427928 61.6806306,21.2083333 61.8921171,20.3623874 C65.5578829,23.8166667 70.845045,32.4876126 63.2315315,35.8713964 C56.7459459,30.7957207 49.0619369,27.0594595 40.531982,24.3101351 C51.5292793,29.7382883 57.8738739,34.109009 61.3986486,37.8452703 C59.6362613,44.7538288 50.2603604,45.0358108 46.8765766,44.8243243 C47.5815315,44.5423423 48.1454955,44.1193694 48.356982,43.5554054 C47.2995495,42.9914414 44.2682432,43.5554054 42.1533784,42.356982 Z M55.8295045,48.1376126 C59.2837838,48.7015766 39.2630631,65.409009 38.9105856,61.6727477 C38.6286036,51.9443694 46.4536036,46.5867117 55.8295045,48.1376126 Z M33.7644144,87.7560811 C29.0412162,83.6673423 27.5608108,71.8240991 36.3022523,66.4664414 C41.5189189,64.9155405 38.0646396,89.729955 33.7644144,87.7560811 Z M53.4326577,108.552252 C50.5423423,110.31464 43.4222973,109.539189 38.4171171,102.419144 C35.0333333,96.427027 35.4563063,90.3644144 37.8531532,88.5315315 C41.4484234,86.4166667 46.9470721,89.306982 51.1768018,94.1006757 C54.8425676,98.5418919 56.5344595,106.225901 53.4326577,108.552252 Z M47.2290541,82.1164414 C41.8713964,78.7326577 40.954955,71.1191441 45.1141892,65.0565315 C49.2734234,58.9939189 56.9574324,56.8085586 62.2445946,60.1923423 C67.6022523,63.5761261 68.5186937,71.1896396 64.3594595,77.2522523 C60.2707207,83.2443694 52.5867117,85.4297297 47.2290541,82.1164414 Z M70.2810811,120.677477 C64.006982,120.959459 57.9443694,115.460811 58.0148649,113.557432 C57.9443694,110.808108 65.6283784,108.622748 70.6335586,108.763739 C75.7092342,108.552252 82.4768018,110.385135 82.4768018,112.922973 C82.5472973,115.31982 76.3436937,120.747973 70.2810811,120.677477 Z M82.4768018,93.8186937 C82.5472973,100.022297 76.7666667,105.097973 69.7171171,105.168468 C62.6675676,105.168468 56.8869369,100.163288 56.8164414,93.9596847 C56.8164414,93.8891892 56.8164414,93.8891892 56.8164414,93.8186937 C56.7459459,87.6150901 62.5265766,82.5394144 69.5761261,82.4689189 C76.6256757,82.4689189 82.4063063,87.4740991 82.4768018,93.6777027 C82.4768018,93.7481982 82.4768018,93.7481982 82.4768018,93.8186937 Z M74.9337838,77.2522523 C70.7745495,71.1896396 71.7614865,63.5761261 77.0486486,60.1923423 C82.4063063,56.8085586 90.0903153,58.9939189 94.1790541,65.0565315 C98.3382883,71.1191441 97.3513514,78.7326577 92.0641892,82.1164414 C86.7065315,85.4297297 79.0225225,83.2443694 74.9337838,77.2522523 Z M100.241667,102.701126 C94.884009,109.962162 87.622973,110.244144 84.9441441,108.199775 C82.1243243,105.591441 84.3096847,97.4844595 88.1164414,93.0432432 L88.1164414,93.0432432 C92.5576577,88.1790541 97.2808559,84.9362613 100.594144,87.4740991 C102.85,89.6594595 104.189414,97.8369369 100.241667,102.701126 Z M104.964865,86.5576577 C100.66464,88.602027 97.2103604,63.7171171 102.427027,65.268018 C111.168468,70.5551802 109.617568,82.4689189 104.964865,86.5576577 Z" opacity=".2"/>
      <path fill="#3D1152" fill-rule="nonzero" d="M24.6704955,52.2263514 L24.6,47.0096847 C24.6,44.6128378 24.740991,43.3439189 24.740991,43.3439189 C24.740991,43.3439189 22.0621622,14.8637387 63.584009,9.85855856 C107.643694,4.5009009 160.44482,18.1065315 166.789414,35.6599099 C168.692793,40.8765766 168.763288,47.7851351 167.564865,55.3281532 L167.564865,55.3281532 C167.564865,55.3281532 139.78964,35.5894144 88.6804054,30.3727477 C37.7121622,25.0855856 24.6704955,52.2263514 24.6704955,52.2263514 Z" opacity=".3"/>
      <g transform="translate(194.142)">
        <path fill="#FFF" fill-rule="nonzero" d="M194.355856,30.2317568 L195.060811,7.74369369 C195.060811,7.74369369 195.624775,4.14842342 188.716216,3.86644144 C181.807658,3.65495495 123.578378,-3.2536036 83.3254505,2.73851351 C43.002027,8.73063063 21.6418919,17.3310811 0.70472973,18.5295045 L0.70472973,47.8556306 C0.70472973,47.8556306 12.1954955,47.8556306 16.7072072,62.5186937 C21.2189189,77.1817568 31.5817568,110.385135 62.4587838,124.484234 C93.3358108,138.583333 144.163063,125.823649 157.698198,114.121396 C171.233333,102.419144 178.423874,62.8006757 180.609234,54.5527027 C182.724099,46.3047297 186.107883,36.5763514 190.972072,35.9418919 C195.060811,35.3074324 194.355856,30.2317568 194.355856,30.2317568 Z"/>
        <g transform="translate(27 8)">
          <mask id="20.10_groovy-gorilla_rpi_sketch-f" fill="#fff">
            <use xlink:href="#20.10_groovy-gorilla_rpi_sketch-d"/>
          </mask>
          <use fill="url(#20.10_groovy-gorilla_rpi_sketch-e)" fill-rule="nonzero" xlink:href="#20.10_groovy-gorilla_rpi_sketch-d"/>
          <g fill-rule="nonzero" mask="url(#20.10_groovy-gorilla_rpi_sketch-f)">
            <g transform="translate(-54 -52)">
              <polygon fill="#E04403" points="-7.617 54.59 166.434 54.59 166.434 105.135 -7.617 105.135" transform="rotate(-45 79.409 79.863)"/>
              <polygon fill="#E76936" points="34.696 83.055 208.748 83.055 208.748 133.6 34.696 133.6" transform="rotate(-45 121.722 108.327)"/>
              <polygon fill="#E04403" points="86.061 101.895 260.112 101.895 260.112 152.44 86.061 152.44" transform="rotate(-45 173.086 127.167)"/>
              <polygon fill="#E3571C" points="55.913 123.096 229.965 123.096 229.965 135.996 55.913 135.996" transform="rotate(-45 142.939 129.546)"/>
              <polygon fill="#E04403" points="83.45 150.56 257.502 150.56 257.502 163.46 83.45 163.46" transform="rotate(-45 170.476 157.01)"/>
              <polygon fill="#E04403" points="21.226 88.412 195.278 88.412 195.278 101.313 21.226 101.313" transform="rotate(-45 108.252 94.863)"/>
            </g>
          </g>
        </g>
        <path fill="#FFF" fill-rule="nonzero" d="M115.612387,64.3515766 L114.836937,62.9416667 C114.836937,53.0018018 110.184234,48.9835586 104.756081,45.8817568 C106.377477,45.4587838 108.069369,45.1063063 108.562838,43.0619369 C111.382658,42.356982 112.017117,41.0175676 112.299099,39.6781532 C113.004054,39.1846847 115.541892,37.8452703 115.25991,35.4484234 C116.66982,34.531982 117.44527,33.2630631 117.022297,31.5711712 C118.502703,29.9497748 118.925676,28.6103604 118.291216,27.4119369 C120.053604,25.2265766 119.278153,24.0986486 118.502703,22.9002252 C119.842117,20.5033784 118.643694,17.895045 114.907432,18.3885135 C113.427027,16.2031532 110.184234,16.6966216 109.690766,16.6966216 C109.126802,15.9916667 108.421847,15.4277027 106.095495,15.7096847 C104.61509,14.4407658 102.993694,14.6522523 101.231306,15.2867117 C99.1869369,13.7358108 97.8475225,15.0047297 96.3671171,15.4277027 C93.8997748,14.6522523 93.3358108,15.7096847 92.1373874,16.1326577 C89.4585586,15.5686937 88.6831081,16.7671171 87.3436937,18.036036 L85.8632883,18.036036 C81.845045,20.3623874 79.8006757,25.0855856 79.0957207,27.4824324 C78.3907658,25.0855856 76.4168919,20.3623874 72.3281532,18.036036 L70.8477477,18.036036 C69.5788288,16.7671171 68.7328829,15.5686937 66.0540541,16.1326577 C64.8556306,15.7096847 64.2916667,14.6522523 61.8243243,15.4277027 C60.8373874,15.1457207 59.9209459,14.4407658 58.793018,14.5112613 L58.793018,14.5112613 C58.2290541,14.5112613 57.5945946,14.7227477 56.8896396,15.2867117 C55.1977477,14.6522523 53.5058559,14.4407658 52.0254505,15.7096847 C49.7695946,15.4277027 48.9941441,15.9916667 48.4301802,16.6966216 C47.9367117,16.6966216 44.6939189,16.2031532 43.2135135,18.3885135 C39.4772523,17.9655405 38.2788288,20.5033784 39.6182432,22.9002252 C38.8427928,24.0281532 38.0673423,25.1560811 39.8297297,27.4119369 C39.1952703,28.6103604 39.6182432,29.9497748 41.0986486,31.5711712 C40.6756757,33.2630631 41.4511261,34.531982 42.861036,35.4484234 C42.5790541,37.7747748 45.0463964,39.1846847 45.8218468,39.6781532 C46.1038288,41.0175676 46.6677928,42.356982 49.5581081,43.0619369 C50.0515766,45.1063063 51.7434685,45.4587838 53.3648649,45.8817568 C47.9367117,48.9835586 43.284009,53.0018018 43.284009,62.9416667 L42.5085586,64.3515766 C36.304955,68.0173423 30.6653153,79.9310811 39.4067568,89.588964 C39.9707207,92.6202703 40.9576577,94.8056306 41.8036036,97.2024775 C43.0725225,106.86036 51.4614865,111.372072 53.6468468,111.936036 C56.8896396,114.332883 60.3439189,116.588739 64.9966216,118.210135 C69.3673423,122.580856 74.161036,124.272748 78.8842342,124.272748 C78.9547297,124.272748 79.0252252,124.272748 79.0957207,124.272748 C83.8894144,124.272748 88.6126126,122.580856 92.9833333,118.210135 C97.636036,116.588739 101.090315,114.332883 104.333108,111.936036 C106.518468,111.372072 114.907432,106.86036 116.176351,97.2024775 C117.022297,94.8056306 118.009234,92.6202703 118.573198,89.588964 C127.455631,79.9310811 121.815991,68.0878378 115.612387,64.3515766 Z M110.184234,61.6727477 C109.902252,65.409009 89.811036,48.7015766 93.2653153,48.1376126 C102.641216,46.5867117 110.466216,51.9443694 110.184234,61.6727477 Z M86.7797297,20.3623874 C86.9912162,21.2788288 87.2027027,21.8427928 87.4141892,21.9837838 C88.6126126,20.7148649 89.5995495,19.4459459 91.1504505,18.2475225 C91.1504505,18.9524775 90.797973,19.7279279 91.7144144,20.2918919 C92.5603604,19.2344595 93.6882883,18.2475225 95.1686937,17.4015766 C94.4637387,18.6 95.0277027,18.9524775 95.4506757,19.4459459 C96.5786036,18.5295045 97.7065315,17.5425676 99.7509009,16.7671171 C99.1869369,17.4720721 98.340991,18.1065315 99.2574324,18.881982 C100.455856,18.177027 101.583784,17.4720721 104.403604,16.9786036 C103.769144,17.6835586 102.500225,18.318018 103.275676,19.022973 C104.756081,18.459009 106.377477,18.1065315 108.21036,17.8245495 C107.364414,18.5295045 106.659459,19.163964 107.364414,19.7279279 C108.915315,19.2344595 111.100676,18.6 113.215541,19.163964 L111.876126,20.5033784 C111.735135,20.6443694 115.048423,20.6443694 117.163288,20.6443694 C116.387838,21.7018018 115.541892,22.7592342 115.118919,24.5921171 C115.330405,24.8036036 116.387838,24.6626126 117.44527,24.5921171 C116.387838,26.706982 114.62545,27.2709459 114.202477,28.1873874 C114.836937,28.6808559 115.753378,28.5398649 116.66982,28.1873874 C115.894369,29.6677928 114.343468,30.7252252 113.07455,31.9236486 C113.356532,32.1351351 113.920495,32.2761261 115.25991,32.1351351 C114.131982,33.3335586 112.722072,34.390991 111.100676,35.3779279 C111.382658,35.7304054 112.369595,35.6599099 113.356532,35.7304054 C111.876126,37.1403153 109.972748,37.9157658 108.139865,38.8322072 C109.056306,39.3961712 109.690766,39.2551802 110.395721,39.2551802 C109.126802,40.2421171 106.941441,40.8060811 104.967568,41.4405405 C105.320045,42.0045045 105.743018,42.1454955 106.518468,42.356982 C104.403604,43.4849099 101.372297,42.9914414 100.526351,43.5554054 C100.737838,44.1193694 101.301802,44.4718468 102.006757,44.8243243 C98.622973,45.0358108 89.2470721,44.6833333 87.4846847,37.8452703 C91.0094595,34.109009 97.3540541,29.7382883 108.351351,24.3101351 C99.8213964,27.0594595 92.0668919,30.7957207 85.6518018,35.8713964 C77.8268018,32.4876126 83.0434685,23.8166667 86.7797297,20.3623874 Z M79.0957207,44.8948198 L79.0957207,44.8948198 C84.1713964,44.8243243 90.515991,48.8425676 90.515991,52.6493243 C90.515991,55.9626126 86.0747748,58.7119369 79.1662162,58.6414414 C72.3986486,58.5709459 67.8164414,55.2576577 67.8164414,52.0148649 C67.8164414,49.336036 73.3150901,44.7538288 79.0957207,44.8948198 Z M51.954955,42.356982 C52.8009009,42.215991 53.1533784,42.0045045 53.5058559,41.4405405 C51.531982,40.8060811 49.3466216,40.3126126 48.0777027,39.2551802 C48.7826577,39.2551802 49.4171171,39.3961712 50.3335586,38.8322072 C48.5711712,37.9157658 46.5972973,37.1403153 45.1168919,35.7304054 C46.0333333,35.7304054 47.0202703,35.7304054 47.3727477,35.3779279 C45.7513514,34.390991 44.3414414,33.3335586 43.2135135,32.1351351 C44.4824324,32.2761261 45.0463964,32.1351351 45.3988739,31.9236486 C44.129955,30.7252252 42.5790541,29.6677928 41.8036036,28.1873874 C42.7905405,28.5398649 43.6364865,28.6103604 44.2709459,28.1873874 C43.847973,27.2709459 42.0150901,26.706982 41.0281532,24.5921171 C42.0150901,24.6626126 43.143018,24.8036036 43.3545045,24.5921171 C42.861036,22.7592342 42.0855856,21.7018018 41.3101351,20.6443694 C43.4954955,20.6443694 46.8087838,20.6443694 46.5972973,20.5033784 L45.2578829,19.163964 C47.3727477,18.6 49.5581081,19.2344595 51.109009,19.7279279 C51.813964,19.163964 51.109009,18.5295045 50.2630631,17.8245495 C52.0959459,18.036036 53.7173423,18.459009 55.1977477,19.022973 C55.9731982,18.318018 54.7042793,17.6835586 54.0698198,16.9786036 C56.8896396,17.4720721 58.0175676,18.177027 59.215991,18.881982 C60.0619369,18.1065315 59.2864865,17.4015766 58.7225225,16.7671171 C60.8373874,17.5425676 61.8948198,18.459009 63.0227477,19.4459459 C63.3752252,18.9524775 64.0096847,18.6 63.3047297,17.4015766 C64.7851351,18.2475225 65.9130631,19.163964 66.759009,20.2918919 C67.6754505,19.7279279 67.322973,18.9524775 67.322973,18.2475225 C68.8738739,19.4459459 69.8608108,20.7148649 71.0592342,21.9837838 C71.2707207,21.8427928 71.4822072,21.2083333 71.6936937,20.3623874 C75.3594595,23.8166667 80.6466216,32.4876126 73.0331081,35.8713964 C66.5475225,30.7957207 58.8635135,27.0594595 50.3335586,24.3101351 C61.3308559,29.7382883 67.6754505,34.109009 71.2002252,37.8452703 C69.4378378,44.7538288 60.0619369,45.0358108 56.6781532,44.8243243 C57.3831081,44.5423423 57.9470721,44.1193694 58.1585586,43.5554054 C57.1011261,42.9914414 54.0698198,43.5554054 51.954955,42.356982 Z M65.6310811,48.1376126 C69.0853604,48.7015766 49.0646396,65.409009 48.7121622,61.6727477 C48.4301802,51.9443694 56.2551802,46.5867117 65.6310811,48.1376126 Z M43.565991,87.7560811 C38.8427928,83.6673423 37.3623874,71.8240991 46.1038288,66.4664414 C51.3204955,64.9155405 47.8662162,89.729955 43.565991,87.7560811 Z M63.2342342,108.552252 C60.3439189,110.31464 53.2238739,109.539189 48.2186937,102.419144 C44.8349099,96.427027 45.2578829,90.3644144 47.6547297,88.5315315 C51.25,86.4166667 56.7486486,89.306982 60.9783784,94.1006757 C64.6441441,98.5418919 66.336036,106.225901 63.2342342,108.552252 Z M57.0306306,82.1164414 C51.672973,78.7326577 50.7565315,71.1191441 54.9157658,65.0565315 C59.075,58.9939189 66.759009,56.8085586 72.0461712,60.1923423 C77.4038288,63.5761261 78.3202703,71.1896396 74.161036,77.2522523 C70.0722973,83.2443694 62.3177928,85.4297297 57.0306306,82.1164414 Z M80.0826577,120.677477 C73.8085586,120.959459 67.7459459,115.460811 67.8164414,113.557432 C67.7459459,110.808108 75.429955,108.622748 80.4351351,108.763739 C85.5108108,108.552252 92.2783784,110.385135 92.2783784,112.922973 C92.3488739,115.31982 86.1452703,120.747973 80.0826577,120.677477 Z M92.2783784,93.8186937 C92.3488739,100.022297 86.5682432,105.097973 79.5186937,105.168468 C72.4691441,105.168468 66.6885135,100.163288 66.618018,93.9596847 C66.618018,93.8891892 66.618018,93.8891892 66.618018,93.8186937 C66.5475225,87.6150901 72.3281532,82.5394144 79.3777027,82.4689189 C86.4272523,82.4689189 92.2078829,87.4740991 92.2783784,93.6777027 C92.2783784,93.7481982 92.2783784,93.7481982 92.2783784,93.8186937 Z M84.7353604,77.2522523 C80.5761261,71.1896396 81.5630631,63.5761261 86.8502252,60.1923423 C92.2078829,56.8085586 99.8918919,58.9939189 103.980631,65.0565315 C108.139865,71.1191441 107.152928,78.7326577 101.865766,82.1164414 C96.5081081,85.4297297 88.8240991,83.2443694 84.7353604,77.2522523 Z M110.043243,102.701126 C104.685586,109.962162 97.4245495,110.244144 94.7457207,108.199775 C91.9259009,105.591441 94.1112613,97.4844595 97.918018,93.0432432 L97.918018,93.0432432 C102.359234,88.1790541 107.082432,84.9362613 110.395721,87.4740991 C112.651577,89.6594595 113.990991,97.8369369 110.043243,102.701126 Z M114.766441,86.5576577 C110.466216,88.602027 107.011937,63.7171171 112.228604,65.268018 C120.970045,70.5551802 119.419144,82.4689189 114.766441,86.5576577 Z" opacity=".2"/>
        <path fill="#3D1152" fill-rule="nonzero" d="M170.81036,52.5083333 L170.880856,47.0096847 C170.880856,44.6128378 170.739865,43.3439189 170.739865,43.3439189 C170.739865,43.3439189 173.418694,14.8637387 131.896847,9.85855856 C87.8371622,4.43040541 35.036036,18.036036 28.6914414,35.5894144 C26.7880631,40.8060811 26.7175676,47.7146396 27.915991,55.2576577 L27.915991,55.2576577 C27.915991,55.2576577 55.6912162,35.5189189 106.80045,30.3022523 C157.839189,25.0855856 170.81036,52.5083333 170.81036,52.5083333 Z" opacity=".3"/>
      </g>
      <path fill="#FFF" fill-rule="nonzero" d="M333.793243,33.968018 C333.793243,35.0959459 332.876802,36.0123874 331.748874,36.0123874 C330.620946,36.0123874 329.704505,35.0959459 329.704505,33.968018 C329.704505,32.8400901 330.620946,31.9236486 331.748874,31.9236486 C332.876802,31.9236486 333.793243,32.8400901 333.793243,33.968018 Z M345.565991,44.0488739 C346.129955,45.0358108 347.398874,45.3882883 348.385811,44.8243243 C349.372748,44.2603604 349.725225,42.9914414 349.161261,42.0045045 C348.597297,41.0175676 347.328378,40.6650901 346.341441,41.2290541 C345.354505,41.793018 345.002027,43.0619369 345.565991,44.0488739 Z M349.161261,26.002027 C349.725225,25.0150901 349.372748,23.7461712 348.385811,23.1822072 C347.398874,22.6182432 346.129955,22.9707207 345.565991,23.9576577 C345.002027,24.9445946 345.354505,26.2135135 346.341441,26.7774775 C347.328378,27.3414414 348.597297,26.988964 349.161261,26.002027 Z M342.182207,28.0463964 C345.284009,28.0463964 347.821847,30.4432432 348.033333,33.4040541 L350.994144,33.3335586 C350.853153,31.0777027 349.866216,29.1038288 348.385811,27.6234234 C347.61036,27.9054054 346.693919,27.9054054 345.847973,27.4119369 C345.072523,26.9184685 344.579054,26.2135135 344.438063,25.3675676 C343.662613,25.1560811 342.887162,25.0855856 342.111712,25.0855856 C340.701802,25.0855856 339.362387,25.4380631 338.163964,26.002027 L339.644369,28.6103604 C340.41982,28.2578829 341.265766,28.0463964 342.182207,28.0463964 Z M336.260586,33.968018 C336.260586,31.9941441 337.247523,30.2317568 338.798423,29.1743243 L337.247523,26.6364865 C335.485135,27.8349099 334.145721,29.6677928 333.581757,31.7826577 C334.216216,32.3466216 334.639189,33.1220721 334.639189,34.0385135 C334.639189,34.954955 334.216216,35.8009009 333.581757,36.2943694 C334.145721,38.4092342 335.485135,40.2421171 337.247523,41.4405405 L338.798423,38.9027027 C337.247523,37.7042793 336.260586,35.9418919 336.260586,33.968018 Z M342.182207,39.8896396 C341.265766,39.8896396 340.490315,39.6781532 339.714865,39.3256757 L338.234459,41.934009 C339.432883,42.497973 340.772297,42.8504505 342.182207,42.8504505 C342.957658,42.8504505 343.733108,42.7094595 344.508559,42.5684685 C344.64955,41.7225225 345.143018,40.9470721 345.918468,40.5240991 C346.693919,40.0306306 347.61036,40.0306306 348.456306,40.3126126 C349.936712,38.8322072 350.923649,36.7878378 351.06464,34.6024775 L348.103829,34.531982 C347.751351,37.4927928 345.284009,39.8896396 342.182207,39.8896396 Z"/>
    </g>
    <rect width="7" height="29.326" x="197.596" y="270.491" fill="#FFF" fill-rule="nonzero"/>
  </g>
</svg>
